<svg xmlns="http://www.w3.org/2000/svg" width="24" height="24" viewBox="0 0 419.145 403.605">
  <path fill="currentColor" d="M281.781 0c-.882.011-1.788.055-2.687.125-35.824 6.184-55.521 44.064-58.375 77.469-4.171 30.311 9.187 69.27 42.469 76.062 4.827.92 9.843.5 14.562-.781 40.077-13.438 58.012-60.903 52.219-100.219C328.285 27.264 309.143-.349 281.78 0zM129.906 1.625C107.631 2.172 90.28 24.763 86.75 46c-7.44 42.074 11.698 94.352 55.531 107.656 4.106.893 8.353.985 12.5.344 29.627-4.938 42.177-38.154 40.938-64.969-.892-35.372-19.266-76.273-56-86.219-3.358-.89-6.63-1.265-9.813-1.187zm248.938 119.5c-38.535 2.305-64.953 40.754-68.719 76.656-5.1 25.894 8.705 60.527 38.25 62.594 41.197-.508 69.301-44.529 70.469-82.406 2.606-25.052-12.151-55.46-40-56.844zm-337.281 8.531c-16.395-.14-32.518 9.68-37.876 26.344-14.292 44.579 14.41 101.038 61.626 110.406 19.705 3.372 37.02-11.76 41.906-29.969 10.354-38.944-10.914-84.165-46.906-101.843-5.864-3.291-12.335-4.883-18.75-4.938zm172.75 79.938c-32.14.068-64.783 16.378-85.594 40.656-22.478 28.297-40.89 61.226-48.094 96.938-8.751 25.706 11.083 55.29 38.563 55.468 33.058.919 61.47-21.783 94.343-23.469 27.89-4.251 52.863 10.256 77.938 19.75 21.35 9.132 50.85 5.632 61.75-17.343 8.573-23.419-4.046-48.39-14.5-69.188-21.322-33.757-44.165-69.236-79.125-90.312-14.013-8.686-29.586-12.534-45.281-12.5z"/>
</svg>
